<?xml version="1.0" encoding="UTF-8"?>
<svg width="512" height="512" viewBox="0 0 512 512" fill="none" xmlns="http://www.w3.org/2000/svg" role="img" aria-label="DevHub logo">
  <defs>
    <linearGradient id="g1" x1="96" y1="64" x2="416" y2="448" gradientUnits="userSpaceOnUse">
      <stop offset="0" stop-color="#00D4FF"/>
      <stop offset="0.55" stop-color="#7C3AED"/>
      <stop offset="1" stop-color="#FF2D7D"/>
    </linearGradient>
    <linearGradient id="g2" x1="140" y1="120" x2="372" y2="392" gradientUnits="userSpaceOnUse">
      <stop offset="0" stop-color="#0B1220" stop-opacity="0.92"/>
      <stop offset="1" stop-color="#0B1220" stop-opacity="0.76"/>
    </linearGradient>
    <filter id="soft" x="-20%" y="-20%" width="140%" height="140%">
      <feGaussianBlur stdDeviation="6" result="blur"/>
      <feColorMatrix in="blur" type="matrix"
        values="1 0 0 0 0
                0 1 0 0 0
                0 0 1 0 0
                0 0 0 0.35 0" result="shadow"/>
      <feMerge>
        <feMergeNode in="shadow"/>
        <feMergeNode in="SourceGraphic"/>
      </feMerge>
    </filter>
  </defs>

  <!-- Outer hex badge -->
  <path filter="url(#soft)"
        d="M256 38 L421 133 L421 323 L256 418 L91 323 L91 133 Z"
        fill="url(#g1)"/>

  <!-- Inner panel -->
  <path d="M256 92 L377 162 L377 294 L256 364 L135 294 L135 162 Z"
        fill="url(#g2)" opacity="0.95"/>

  <!-- Hub + nodes -->
  <g opacity="0.95" stroke="url(#g1)" stroke-width="14" stroke-linecap="round">
    <path d="M256 256 L172 210"/>
    <path d="M256 256 L330 200"/>
    <path d="M256 256 L340 300"/>
    <path d="M256 256 L190 320"/>
    <path d="M256 256 L256 168"/>
    <path d="M256 256 L256 344"/>
  </g>

  <g>
    <circle cx="172" cy="210" r="18" fill="#0B1220" stroke="url(#g1)" stroke-width="10"/>
    <circle cx="330" cy="200" r="18" fill="#0B1220" stroke="url(#g1)" stroke-width="10"/>
    <circle cx="340" cy="300" r="18" fill="#0B1220" stroke="url(#g1)" stroke-width="10"/>
    <circle cx="190" cy="320" r="18" fill="#0B1220" stroke="url(#g1)" stroke-width="10"/>
    <circle cx="256" cy="168" r="18" fill="#0B1220" stroke="url(#g1)" stroke-width="10"/>
    <circle cx="256" cy="344" r="18" fill="#0B1220" stroke="url(#g1)" stroke-width="10"/>
  </g>

  <!-- Central mark: stylized "DH" -->
  <g filter="url(#soft)">
    <path d="M205 200 V312 H246 C286 312 308 290 308 256 C308 222 286 200 246 200 H205 Z
             M231 224 H244 C268 224 283 238 283 256 C283 274 268 288 244 288 H231 V224 Z"
          fill="white" opacity="0.96"/>
    <path d="M318 200 V312 H343 V270 H381 V312 H406 V200 H381 V246 H343 V200 H318 Z"
          fill="white" opacity="0.96"/>
  </g>

  <circle cx="256" cy="256" r="120" stroke="white" stroke-opacity="0.10" stroke-width="10"/>
</svg>
